<svg xmlns="http://www.w3.org/2000/svg" version="1.1" xmlns:xlink="http://www.w3.org/1999/xlink" xmlns:svgjs="http://svgjs.com/svgjs" width="1448" height="561" preserveAspectRatio="none" viewBox="0 0 1448 561"><g mask="url(&quot;#SvgjsMask1141&quot;)" fill="none"><rect width="1448" height="561" x="0" y="0" fill="rgba(255, 172, 172, 1)"></rect><path d="M0 0L532.78 0L0 111.5z" fill="rgba(255, 255, 255, .1)"></path><path d="M0 111.5L532.78 0L801.0799999999999 0L0 145.42000000000002z" fill="rgba(255, 255, 255, .075)"></path><path d="M0 145.42000000000002L801.0799999999999 0L983.0799999999999 0L0 337.1z" fill="rgba(255, 255, 255, .05)"></path><path d="M0 337.1L983.0799999999999 0L1156.6499999999999 0L0 411.94000000000005z" fill="rgba(255, 255, 255, .025)"></path><path d="M1448 561L1207.97 561L1448 404.03999999999996z" fill="rgba(0, 0, 0, .1)"></path><path d="M1448 404.03999999999996L1207.97 561L957.37 561L1448 379.84z" fill="rgba(0, 0, 0, .075)"></path><path d="M1448 379.84000000000003L957.37 561L760.55 561L1448 205.06000000000003z" fill="rgba(0, 0, 0, .05)"></path><path d="M1448 205.06L760.55 561L449.54999999999995 561L1448 62.129999999999995z" fill="rgba(0, 0, 0, .025)"></path></g><defs><mask id="SvgjsMask1141"><rect width="1448" height="561" fill="#ffffff"></rect></mask></defs></svg>