<?xml version="1.0" standalone="no"?><svg xmlns="http://www.w3.org/2000/svg" viewBox="0 0 1440 320"><path fill="#ffacac" fill-opacity="0.33" d="M0,288L26.7,245.3C53.3,203,107,117,160,96C213.3,75,267,117,320,144C373.3,171,427,181,480,197.3C533.3,213,587,235,640,256C693.3,277,747,299,800,277.3C853.3,256,907,192,960,138.7C1013.3,85,1067,43,1120,74.7C1173.3,107,1227,213,1280,229.3C1333.3,245,1387,171,1413,133.3L1440,96L1440,320L1413.3,320C1386.7,320,1333,320,1280,320C1226.7,320,1173,320,1120,320C1066.7,320,1013,320,960,320C906.7,320,853,320,800,320C746.7,320,693,320,640,320C586.7,320,533,320,480,320C426.7,320,373,320,320,320C266.7,320,213,320,160,320C106.7,320,53,320,27,320L0,320Z"></path></svg>